<?xml version="1.0" standalone="no"?>
<!DOCTYPE svg PUBLIC "-//W3C//DTD SVG 20010904//EN"
 "http://www.w3.org/TR/2001/REC-SVG-20010904/DTD/svg10.dtd">
<svg version="1.0" xmlns="http://www.w3.org/2000/svg"
 width="460.000000pt" height="460.000000pt" viewBox="0 0 460.000000 460.000000"
 preserveAspectRatio="xMidYMid meet">
<metadata>
Created by potrace 1.11, written by Peter Selinger 2001-2013
</metadata>
<g transform="translate(0.000000,460.000000) scale(0.100000,-0.100000)"
fill="#000000" stroke="none">
<path d="M2205 4569 c-27 -17 -41 -27 -30 -23 42 15 172 16 224 1 28 -8 51
-13 51 -12 0 2 -25 17 -55 34 -73 41 -123 41 -190 0z"/>
<path d="M1175 3979 l-880 -509 -2 -83 -3 -82 19 53 c89 242 382 332 590 182
22 -17 42 -30 44 -30 2 0 221 125 487 278 l483 279 1 104 c1 91 4 111 28 161
15 32 48 80 74 108 26 27 45 50 43 49 -2 0 -400 -230 -884 -510z"/>
<path d="M2577 4437 c74 -81 97 -146 98 -272 l1 -100 483 -278 484 -279 43 32
c86 62 184 85 289 68 86 -13 137 -39 204 -103 200 -191 139 -531 -115 -636
l-54 -23 0 -546 0 -547 65 -32 c83 -41 150 -109 189 -191 28 -58 31 -75 31
-160 0 -86 -3 -101 -32 -163 -20 -42 -52 -87 -85 -120 -29 -28 -42 -45 -28
-36 14 8 55 33 93 54 l67 39 0 1161 -1 1160 -841 485 c-463 267 -864 498 -892
514 l-51 29 52 -56z"/>
<path d="M1529 3619 l-487 -282 10 -36 c6 -20 8 -68 4 -107 l-5 -71 491 -276
492 -276 35 31 c19 17 60 42 90 56 l54 25 -6 345 c-4 190 -7 441 -7 557 l0
212 -37 11 c-21 7 -62 30 -91 52 -29 22 -53 40 -55 40 -1 0 -221 -127 -488
-281z"/>
<path d="M2527 3865 c-21 -18 -62 -42 -89 -52 l-51 -18 6 -365 c4 -201 7 -451
7 -557 l0 -191 51 -17 c27 -9 70 -33 95 -52 l46 -34 471 272 472 272 -1 110 0
110 -480 278 c-263 153 -481 278 -484 278 -3 0 -22 -15 -43 -34z"/>
<path d="M291 2300 c0 -835 0 -854 18 -803 40 117 131 205 254 246 16 6 17 41
17 555 l0 548 -55 23 c-99 41 -188 139 -220 244 -12 35 -14 -91 -14 -813z"/>
<path d="M902 2915 c-24 -19 -63 -41 -88 -51 l-44 -17 0 -548 0 -549 53 -24
c28 -13 69 -37 90 -54 l37 -30 493 281 492 280 -1 99 -2 99 -487 275 c-268
151 -490 274 -494 273 -3 0 -25 -15 -49 -34z"/>
<path d="M3161 2680 l-464 -269 -1 -109 -1 -109 470 -275 469 -275 41 32 c23
17 64 41 93 53 l52 23 0 547 0 548 -64 27 c-35 16 -74 39 -87 53 -12 13 -27
24 -33 23 -6 0 -220 -121 -475 -269z"/>
<path d="M1541 1752 l-484 -277 -1 -107 -1 -108 476 -275 c262 -151 479 -275
483 -275 4 0 22 11 40 25 17 13 58 36 89 50 l57 26 0 207 c0 114 3 365 6 557
l7 350 -52 23 c-29 13 -67 37 -85 53 -19 16 -38 29 -42 29 -5 0 -227 -125
-493 -278z"/>
<path d="M2556 2001 c-17 -18 -101 -64 -138 -75 -16 -5 -18 -23 -18 -199 0
-107 -3 -356 -7 -554 l-6 -360 56 -26 c31 -14 73 -38 92 -53 26 -20 40 -24 54
-18 10 5 227 130 482 277 l464 269 0 107 0 107 -464 269 c-255 149 -471 271
-480 273 -10 2 -25 -6 -35 -17z"/>
<path d="M291 1218 l-1 -76 35 -21 c19 -12 52 -31 73 -43 l37 -22 -42 46 c-45
50 -70 92 -89 153 -13 40 -13 40 -13 -37z"/>
<path d="M913 1065 c-92 -73 -235 -103 -338 -71 -27 8 -50 14 -51 13 -1 -1
842 -490 1467 -849 l48 -28 -47 63 c-63 83 -86 159 -80 264 l4 78 -481 278
c-265 152 -483 277 -486 277 -2 0 -18 -12 -36 -25z"/>
<path d="M3150 813 l-475 -276 0 -96 c-1 -124 -25 -188 -102 -272 l-56 -60
249 144 c137 79 490 282 784 452 294 169 540 312 545 317 6 5 -12 -1 -40 -13
-67 -30 -174 -36 -246 -16 -30 9 -81 34 -112 57 -32 22 -61 40 -65 39 -4 0
-221 -125 -482 -276z"/>
<path d="M2365 52 c-48 -12 -71 -13 -124 -4 -36 6 -67 10 -68 8 -8 -8 99 -56
125 -56 17 0 55 14 84 31 78 46 78 45 -17 21z"/>
</g>
</svg>
